<svg xmlns="http://www.w3.org/2000/svg" width="85" height="85"><path d="M34.863 51.797a1.66 1.66 0 101.66 1.66 1.661 1.661 0 00-1.66-1.66zm0 9.961a1.66 1.66 0 101.66 1.66 1.661 1.661 0 00-1.66-1.66zm28.555-9.961H41.504a1.66 1.66 0 000 3.32h21.914a1.66 1.66 0 000-3.32zm0 9.961H41.504a1.66 1.66 0 000 3.32h21.914a1.66 1.66 0 000-3.32zM4.98 80.573v2.767a1.66 1.66 0 003.32 0v-2.767l.664-.885a21.716 21.716 0 004.316-12.949V19.922h1.66a1.662 1.662 0 011.66 1.66v15.273a1.66 1.66 0 003.32 0V21.582a4.986 4.986 0 00-4.98-4.98h-1.66v-3.32a6.587 6.587 0 00-1.66-4.389V4.98a4.98 4.98 0 00-9.961 0v3.914A6.638 6.638 0 000 13.281v53.457a21.715 21.715 0 004.316 12.95zm4.98-15.495H3.32V19.922h6.641zM3.32 16.6v-3.32a3.32 3.32 0 016.641 0v3.32zM6.641 3.32A1.662 1.662 0 018.3 4.98v1.873a6.595 6.595 0 00-3.32 0V4.98a1.662 1.662 0 011.661-1.66zM9.884 68.4a18.4 18.4 0 01-3.243 8.839A18.4 18.4 0 013.4 68.4zm0 0" fill="#32325f"/><path d="M85.002 26.894v-8.3a6.648 6.648 0 00-6.642-6.641H31.543a8.31 8.31 0 00-8.3 8.3v51.465h-4.98a1.66 1.66 0 00-1.66 1.66 11.634 11.634 0 0011.621 11.621H66.74a8.47 8.47 0 008.3-8.656v-47.79h8.3a1.66 1.66 0 001.662-1.659zM28.225 81.679a8.316 8.316 0 01-8.134-6.641H58.44v1.66a8.261 8.261 0 001.664 4.98zm43.5-63.086v57.75a5.135 5.135 0 01-4.98 5.336 4.986 4.986 0 01-4.98-4.98v-3.32a1.66 1.66 0 00-1.66-1.66H26.563V20.253a5 5 0 014.98-5h41.059a6.7 6.7 0 00-.883 3.341zm9.961 6.641h-6.641v-6.64a3.32 3.32 0 016.641 0zm0 0" fill="#32325f"/><path d="M45.051 42.226c.946.8 1.925 1.625 2.964 2.525a1.661 1.661 0 002.174 0c1.038-.9 2.017-1.726 2.964-2.525 5.285-4.46 9.1-7.682 9.1-12.414a7.583 7.583 0 00-7.407-7.9 6.974 6.974 0 00-5.746 3.021 6.976 6.976 0 00-5.745-3.019 7.582 7.582 0 00-7.406 7.9c0 4.73 3.818 7.952 9.102 12.412zm-1.7-16.991c3.031 0 4.106 3.617 4.15 3.771a1.659 1.659 0 001.591 1.206h.008a1.666 1.666 0 001.6-1.206c.044-.154 1.119-3.771 4.148-3.771 2.33 0 4.087 1.968 4.087 4.578 0 3.189-2.982 5.705-7.924 9.876-.619.523-1.253 1.057-1.909 1.618-.657-.561-1.291-1.1-1.91-1.619-4.941-4.17-7.923-6.687-7.923-9.875 0-2.61 1.757-4.579 4.086-4.579zm0 0" fill="#32325f"/></svg>