<svg xmlns="http://www.w3.org/2000/svg" width="85" height="85"><path d="M42.5 58.437a1.66 1.66 0 101.66 1.66 1.661 1.661 0 00-1.66-1.66zm0 0"/><path d="M85 33.546a1.661 1.661 0 00-.94-1.506L56.5 18.758a1.661 1.661 0 00-1.463.01l-5.9 2.949V1.66A1.66 1.66 0 0047.48 0h-9.961a1.66 1.66 0 00-1.66 1.66v20.058l-5.9-2.949a1.661 1.661 0 00-1.463-.01L.94 32.04a1.66 1.66 0 00.021 3L12 40.176.96 45.311a1.66 1.66 0 00-.021 3l13.338 6.429v15.319a1.66 1.66 0 00.918 1.484l26.562 13.281c.016.008.032.013.047.02a1.47 1.47 0 00.203.078l.076.023c.046.012.092.021.139.029l.069.012a1.666 1.666 0 00.188.013h.021a1.665 1.665 0 00.212-.015c.018 0 .035-.006.053-.009.052-.008.1-.019.155-.032l.07-.021a1.596 1.596 0 00.207-.079l.044-.019L69.8 71.544a1.661 1.661 0 00.918-1.485V54.74l13.342-6.428a1.66 1.66 0 00-.021-3L73 40.176l11.039-5.136A1.66 1.66 0 0085 33.546zM39.18 3.32h6.64v23.575a1.66 1.66 0 001.66 1.66h1.661L42.5 37.409l-5.917-7.888-.724-.966h1.661a1.66 1.66 0 001.66-1.66zM42.5 51.6L19.649 40.176l15.109-7.554 6.414 8.55a1.66 1.66 0 002.656 0l6.413-8.55 15.109 7.554zM29.2 22.1l6.263 3.131h-2.924a1.66 1.66 0 00-1.328 2.656l1.523 2.031-16.823 8.415-10.372-4.824zM15.911 42.019l22.877 11.438-9.588 4.791L5.539 46.843zM67.4 69.032L44.16 80.653V66.738a1.66 1.66 0 00-3.32 0v13.915L17.6 69.032V56.34l10.9 5.253a1.663 1.663 0 001.464-.01l12.536-6.27 12.539 6.27a1.661 1.661 0 001.463.01L67.4 56.34zM55.795 58.248l-9.583-4.791 22.876-11.438 10.372 4.824zm13.293-19.915l-16.822-8.412 1.523-2.031a1.66 1.66 0 00-1.328-2.656h-2.929l6.262-3.134L79.46 33.509zm0 0" fill="#32325f"/></svg>