<svg xmlns="http://www.w3.org/2000/svg" width="84.973" height="85"><path d="M39.062 57.652a1.661 1.661 0 10-2.348 0 1.662 1.662 0 002.348 0zm0 0"/><path d="M31.202 18.257A18.257 18.257 0 1049.459 0a18.278 18.278 0 00-18.257 18.257zm33.194 0A14.938 14.938 0 1149.459 3.32a14.954 14.954 0 0114.937 14.937zM19.117 84.509a1.659 1.659 0 002.342.014l8.047-7.927a5.015 5.015 0 001.182-5.15l1.731-1.669a4.95 4.95 0 013.456-1.4h22.063a14.86 14.86 0 0010.419-4.233c.115-.112-.876 1.056 15.052-17.982a6.639 6.639 0 00-10.1-8.617l-9.794 10.066a6.67 6.67 0 00-5.16-2.471H39.846a21.412 21.412 0 00-8.311-1.66c-7.992 0-14.971 3.691-18.716 10.612a4.958 4.958 0 00-4.439 1.375l-7.9 7.919a1.66 1.66 0 000 2.341zm12.417-37.706a18.118 18.118 0 017.307 1.521 1.656 1.656 0 00.665.139h18.847a3.32 3.32 0 110 6.639H44.812a1.66 1.66 0 000 3.319h13.541a6.629 6.629 0 006.58-7.506c9.474-9.738 10.81-11.107 10.867-11.175a3.32 3.32 0 115.069 4.289l-14.886 17.8a11.557 11.557 0 01-8.045 3.235H35.874a8.252 8.252 0 00-5.761 2.327l-1.414 1.358-13-13c3.04-5.703 8.742-8.946 15.835-8.946zM10.729 57.817a1.656 1.656 0 012.055-.233c.287.175-.538-.576 14.375 14.316a1.663 1.663 0 01.009 2.339l-6.86 6.758L3.999 64.565zm0 0" fill="#32325f"/><path d="M47.467 8.298v1.945a4.979 4.979 0 001.66 9.673 1.66 1.66 0 010 3.319 3 3 0 01-2.155-1.255 1.66 1.66 0 00-2.541 2.136 6.884 6.884 0 003.036 2.161v1.937a1.66 1.66 0 103.319 0V26.27a4.979 4.979 0 00-1.659-9.673 1.66 1.66 0 010-3.32 2.665 2.665 0 011.8.868 1.66 1.66 0 102.309-2.385 6.412 6.412 0 00-2.444-1.528V8.298a1.66 1.66 0 10-3.319 0zm0 0"/></svg>