<svg xmlns="http://www.w3.org/2000/svg" width="73.228" height="85"><path d="M44.916 29.882a1.66 1.66 0 10-1.66-1.66 1.661 1.661 0 001.66 1.66zm-16.602 0a1.66 1.66 0 10-1.66-1.66 1.661 1.661 0 001.66 1.66zm3.863 11.411a10.442 10.442 0 008.79.04 1.66 1.66 0 10-1.387-3.017 7.122 7.122 0 01-5.988-.027 1.66 1.66 0 10-1.416 3zm0 0" fill="#32325f"/><path d="M73.228 67.364c0-9.129-10.4-16.288-19.308-16.628l-4.547-4.085a21.658 21.658 0 008.9-17.433V18.262A18.312 18.312 0 0039.951 0h-6.64a18.2 18.2 0 00-18.2 18.262v10.957a21.7 21.7 0 008.782 17.4l-4.581 4.116C10.416 51.075 0 58.216 0 67.364V83.34A1.66 1.66 0 001.66 85h69.908a1.66 1.66 0 001.66-1.66zm-40.291 6.679h7.346l1.741 7.637H31.145zm7.488-3.32h-7.593l-1.274-3.968 5.057-2.528 5.165 2.583zm-3.811-11.485l-5.769-9.229a21.575 21.575 0 0011.529.014zM38.99 61.7l7.971-12.754 4.3 3.862L45.79 65.1zM33.311 3.32h6.641a14.987 14.987 0 0115 14.941v1.372l-3.117-4.489a1.66 1.66 0 00-2.551-.214c-3.375 3.451-7.282 4.991-12.668 4.991s-9.294-1.54-12.671-4.991a1.66 1.66 0 00-2.558.225l-2.958 4.335v-1.23A14.929 14.929 0 0133.311 3.32zm-14.883 25.9v-3.838l4.611-6.757c3.694 3.142 8.059 4.617 13.576 4.617s9.892-1.479 13.586-4.627l4.75 6.84v3.763a18.262 18.262 0 11-36.523 0zm7.839 19.73l7.972 12.75-6.8 3.4-5.471-12.29zM3.32 67.364c0-6.839 8.314-12.744 15.579-13.281l6.211 13.956a1.66 1.66 0 002.259.81l1.183-.592 1.348 4.195-2.165 9.228H3.32zM69.907 81.68H45.428l-2.1-9.2 1.444-4.17 1.083.542a1.66 1.66 0 002.259-.81l6.211-13.956c7.265.538 15.579 6.442 15.579 13.281zm0 0" fill="#32325f"/><path d="M58.197 74.043h-6.641a1.66 1.66 0 000 3.32h6.641a1.66 1.66 0 000-3.32zm6.549 0a1.66 1.66 0 11-1.66 1.66 1.661 1.661 0 011.66-1.66zm0 0" fill="#32325f"/></svg>